<svg width="150" height="32" viewBox="0 0 150 32" fill="none" xmlns="http://www.w3.org/2000/svg">
<path d="M144.395 0C141.767 0 139.636 2.1307 139.636 4.75849C139.636 7.38629 141.767 9.51699 144.395 9.51699C147.023 9.51699 149.153 7.38629 149.153 4.75849C149.153 2.1307 147.023 0 144.395 0ZM144.395 8.70974C142.213 8.70974 140.444 6.94018 140.444 4.75849C140.444 2.57681 142.213 0.807244 144.395 0.807244C146.577 0.807244 148.346 2.57681 148.346 4.75849C148.346 6.94018 146.577 8.70974 144.395 8.70974ZM145.324 5.15468C145.694 5.01872 146.157 4.63422 146.157 3.88858C146.157 3.13232 145.674 2.49608 144.625 2.49608H142.972C142.925 2.49608 142.887 2.53432 142.887 2.58106V6.93593C142.887 6.98266 142.925 7.0209 142.972 7.0209H143.55C143.597 7.0209 143.635 6.98266 143.635 6.93593V5.28108H144.578L145.37 6.97204C145.384 7.00178 145.413 7.0209 145.446 7.0209H146.105C146.119 7.02103 146.134 7.01743 146.146 7.01045C146.159 7.00347 146.169 6.99336 146.177 6.98107C146.185 6.96879 146.189 6.95477 146.189 6.94035C146.19 6.92593 146.187 6.9116 146.18 6.89875L145.324 5.15468ZM144.501 4.68414H143.635V3.11214H144.521C145.031 3.11214 145.381 3.38087 145.381 3.91407C145.381 4.41223 145.064 4.68414 144.501 4.68414Z" fill="#004368"/>
<g clip-path="url(#clip0_4_845)">
<path d="M13.146 21.899V17.4748H24.5884V27.9342C23.4752 29.0092 21.8648 29.9544 19.7543 30.7726C17.6438 31.5909 15.5079 32 13.3438 32C10.5948 32 8.19612 31.4244 6.15345 30.2704C4.10795 29.1192 2.571 27.4715 1.5426 25.3299C0.5142 23.1856 0 20.855 0 18.3354C0 15.6013 0.573531 13.172 1.72059 11.0474C2.87048 8.91995 4.54869 7.28911 6.76088 6.15485C8.44757 5.28582 10.5439 4.84849 13.0556 4.84849C16.3188 4.84849 18.87 5.5313 20.7036 6.89973C22.54 8.26817 23.7182 10.1558 24.2465 12.5682L18.9745 13.5529C18.6044 12.2635 17.9066 11.2449 16.8838 10.5C15.8611 9.75512 14.5841 9.37985 13.0556 9.37985C10.736 9.37985 8.89114 10.1135 7.52371 11.5835C6.15345 13.0535 5.46973 15.2317 5.46973 18.1209C5.46973 21.2359 6.16192 23.5749 7.54913 25.1324C8.93635 26.6899 10.753 27.4686 13.0019 27.4686C14.1151 27.4686 15.2282 27.2514 16.347 26.814C17.4659 26.3795 18.4236 25.8491 19.226 25.2283V21.899H13.146Z" fill="#004368"/>
<path d="M34.2709 31.5514H29.2306V12.5315H33.9121V15.2345C34.7116 13.9563 35.4321 13.1155 36.0734 12.7092C36.7119 12.3029 37.438 12.0998 38.2517 12.0998C39.3988 12.0998 40.5063 12.4158 41.5686 13.0478L40.009 17.4353C39.1586 16.8851 38.3704 16.6114 37.6414 16.6114C36.9351 16.6114 36.339 16.8061 35.8474 17.1926C35.3558 17.582 34.9716 18.2817 34.6918 19.2975C34.4121 20.3132 34.2709 22.4378 34.2709 25.6741V31.5514Z" fill="#004368"/>
<path d="M42.5741 21.7748C42.5741 20.1045 42.9866 18.4849 43.8115 16.9218C44.6365 15.3587 45.8062 14.1623 47.3177 13.3385C48.8292 12.5146 50.5187 12.1026 52.3834 12.1026C55.2652 12.1026 57.6271 13.0365 59.4664 14.9044C61.3085 16.7722 62.2295 19.1339 62.2295 21.9864C62.2295 24.8644 61.3 27.2486 59.441 29.1418C57.5819 31.035 55.2426 31.9803 52.4201 31.9803C50.6741 31.9803 49.01 31.5852 47.4251 30.798C45.8401 30.0108 44.6365 28.854 43.8115 27.3332C42.9866 25.8124 42.5741 23.9587 42.5741 21.7748ZM47.7387 22.0428C47.7387 23.9304 48.1879 25.3751 49.0835 26.3767C49.9791 27.3783 51.0866 27.8806 52.4004 27.8806C53.7141 27.8806 54.8188 27.3783 55.7088 26.3767C56.5987 25.3751 57.0451 23.9163 57.0451 22.0062C57.0451 20.144 56.5987 18.7106 55.7088 17.709C54.8188 16.7073 53.7141 16.2051 52.4004 16.2051C51.0838 16.2051 49.9791 16.7073 49.0835 17.709C48.1879 18.7106 47.7387 20.1552 47.7387 22.0428Z" fill="#004368"/>
<path d="M64.151 31.5514V27.6295L71.2877 19.4443C72.4602 18.1069 73.3247 17.1588 73.8869 16.5973C73.3021 16.634 72.5308 16.6566 71.573 16.6679L64.8489 16.7046V12.5315H80.5941V16.0951L73.3134 24.4779L70.748 27.2542C72.1466 27.1696 73.0139 27.1301 73.3473 27.1301H81.1479V31.5542H64.151V31.5514Z" fill="#004368"/>
<path d="M82.5153 31.5514V27.6295L89.6519 19.4443C90.8244 18.1069 91.689 17.1588 92.2512 16.5974C91.6664 16.634 90.8951 16.6566 89.9373 16.6679L83.2131 16.7046V12.5315H98.9584V16.0951L91.6777 24.4779L89.1123 27.2543C90.5108 27.1696 91.3782 27.1301 91.7116 27.1301H99.5122V31.5543H82.5153V31.5514Z" fill="#004368"/>
<path d="M102.905 9.95262V5.29711H107.945V9.95262H102.905ZM102.905 31.5514V12.5315H107.945V31.5514H102.905Z" fill="#004368"/>
<path d="M113.11 9.95262V5.29711H118.15V9.95262H113.11ZM113.11 31.5514V12.5315H118.15V31.5514H113.11Z" fill="#004368"/>
<path d="M134.342 25.4992L139.362 26.34C138.715 28.1797 137.698 29.5791 136.305 30.5413C134.913 31.5034 133.169 31.9831 131.079 31.9831C127.767 31.9831 125.315 30.9024 123.724 28.7411C122.47 27.0087 121.84 24.8249 121.84 22.1867C121.84 19.0351 122.665 16.5663 124.315 14.7802C125.965 12.9942 128.05 12.1026 130.573 12.1026C133.407 12.1026 135.641 13.0365 137.28 14.9044C138.919 16.7722 139.701 19.6361 139.631 23.4931H127.005C127.041 24.9857 127.448 26.1482 128.225 26.9777C129.002 27.8072 129.971 28.222 131.13 28.222C131.918 28.222 132.582 28.0075 133.121 27.5759C133.661 27.1442 134.068 26.4529 134.342 25.4992ZM134.63 20.412C134.593 18.9561 134.218 17.8472 133.5 17.0911C132.782 16.3321 131.909 15.954 130.881 15.954C129.782 15.954 128.872 16.3547 128.154 17.1531C127.437 17.9545 127.084 19.0407 127.095 20.412H134.63Z" fill="#004368"/>
</g>
<defs>
<clipPath id="clip0_4_845">
<rect width="139.636" height="27.1515" fill="white" transform="translate(0 4.84849)"/>
</clipPath>
</defs>
</svg>
